<?xml version="1.0" encoding="UTF-8" standalone="no"?><!DOCTYPE svg PUBLIC "-//W3C//DTD SVG 1.1//EN" "http://www.w3.org/Graphics/SVG/1.1/DTD/svg11.dtd"><svg width="100%" height="100%" viewBox="0 0 3763 1513" version="1.1" xmlns="http://www.w3.org/2000/svg" xmlns:xlink="http://www.w3.org/1999/xlink" xml:space="preserve" xmlns:serif="http://www.serif.com/" style="fill-rule:evenodd;clip-rule:evenodd;stroke-linejoin:round;stroke-miterlimit:2;"><rect id="Exasol_Logo_2025_Dark" x="1.378" y="2.146" width="3758.47" height="1506.85" style="fill:none;"/><g><path d="M188.278,350.715l0,795.192l493.925,-0l0,-124.459l-349.492,0l0,-213.775l267.742,0l0,-124.233l-267.742,0l0,-208.5l331.575,0l0,-124.225l-476.008,0Z" style="fill:#002e40;fill-rule:nonzero;"/><path d="M1695.31,1036.84c93.141,3.225 171.275,-69.658 174.516,-162.808c0.225,-4.2 0.225,-8.417 0,-12.625c1.275,-93.709 -73.658,-170.717 -167.366,-171.992l-7.15,0c-92.509,-3.092 -170.017,69.375 -173.134,161.892l0,10.1c-2.7,94.183 71.459,172.733 165.65,175.433l7.484,0Zm175.666,28.017c-37.658,61.766 -119.866,93.225 -190.133,93.225c-152.7,-0 -287.033,-114.809 -287.033,-295.525c-6.2,-156.117 115.333,-287.709 271.45,-293.909c0.141,0 0.283,-0.008 0.425,-0.016l15.158,-0c68.892,-0 151.325,27.791 190.133,91.85l0,-80.134l123.534,0l-0,565.567l-123.534,0l0,-81.058Z" style="fill:#002e40;fill-rule:nonzero;"/><path d="M2170.86,975.754c42.409,39.5 97.759,62.192 155.684,63.834c40.191,-0 74.858,-17.909 74.858,-51.667c-0,-84.958 -277.617,-73.933 -277.617,-257.408c0,-106.542 95.067,-168.084 218.375,-168.084c128.825,0 191.509,64.984 191.509,64.984l-52.584,105.166c-39.491,-32.283 -89.066,-49.675 -140.075,-49.133c-36.966,-0 -72.791,15.608 -72.791,51.433c-0,80.6 277.85,70.492 277.85,254.192c-0,95.3 -82.892,171.3 -218.609,171.3c-81.883,1.575 -161.233,-28.442 -221.583,-83.808l64.983,-100.809Z" style="fill:#002e40;fill-rule:nonzero;"/><path d="M2932.3,1039.59c93.841,-0.25 169.716,-76.533 169.458,-170.383l0,-7.809c4.892,-93.716 -67.125,-173.65 -160.85,-178.533c-93.717,-4.883 -173.65,67.133 -178.533,160.858l-0,17.675c-4.55,93.459 67.3,173.017 160.741,177.967l8.267,0m0,-477.167c174.742,0 314.808,124.234 314.808,298.517c0,174.283 -140.066,298.508 -313.658,298.508c-173.6,0 -314.592,-123.075 -314.592,-298.508c0,-175.433 139.842,-298.517 313.442,-298.517" style="fill:#002e40;fill-rule:nonzero;"/><path d="M3352.28,350.715l141.217,0l-0,597.025c-0,62.683 21.358,78.3 58.325,78.3c11.025,0 21.125,-1.15 21.125,-1.15l-0,124.458c-15.217,2.109 -30.558,3.184 -45.925,3.217c-78.3,0 -175.892,-19.975 -175.892,-183.7l1.15,-618.15Z" style="fill:#002e40;fill-rule:nonzero;"/><path d="M758.436,1145.91l217.458,-283.817l-216.542,-282.208l167.167,-0l216.542,282.208l-217.684,283.817l-166.941,-0Z" style="fill:#5fc33b;fill-rule:nonzero;"/><path d="M1089.1,721.331l83.583,109.075l191.283,-250.758l-167.4,-0.225l-107.466,141.908Z" style="fill:#002e40;fill-rule:nonzero;"/><path d="M1089.1,1004l83.583,-109.075l191.283,250.75l-167.4,0.233l-107.466,-141.908Z" style="fill:#002e40;fill-rule:nonzero;"/></g></svg>